<svg width="101" height="22" viewBox="0 0 101 22" fill="none" xmlns="http://www.w3.org/2000/svg">
<g id="&#235;&#172;&#180;&#236;&#149;&#132;&#236;&#167;&#128;&#234;&#178;&#189;">
<path id="Vector" d="M97.9813 14.369C97.9501 14.8213 97.8565 15.4296 97.7006 16.1938C97.5446 16.9581 97.3808 17.5663 97.2093 18.0186C97.0377 18.471 96.757 18.8999 96.367 19.3054C95.9927 19.7265 95.5482 20.0306 95.0335 20.2178C94.5344 20.4205 93.8014 20.5921 92.8344 20.7325C91.883 20.8885 90.8146 20.982 89.6292 21.0132C88.4439 21.06 86.9154 21.0834 85.0438 21.0834C83.6557 21.0834 82.4703 21.0678 81.4877 21.0366C80.5051 21.021 79.6005 20.9742 78.7739 20.8962C77.9473 20.8183 77.2766 20.7325 76.7619 20.6389C76.2628 20.5453 75.8183 20.3972 75.4284 20.1944C75.0385 20.0072 74.7577 19.8045 74.5862 19.5861C74.4146 19.3678 74.2976 19.0792 74.2352 18.7205C74.1729 18.3618 74.1573 17.9953 74.1884 17.6209C74.2352 17.2466 74.321 16.7709 74.4458 16.1938C74.6018 15.4296 74.7655 14.8213 74.9371 14.369C75.1087 13.9167 75.3894 13.4878 75.7793 13.0823C76.1692 12.6612 76.6137 12.357 77.1128 12.1699C77.6275 11.9671 78.3606 11.7955 79.312 11.6552C80.279 11.4992 81.3552 11.4056 82.5405 11.3744C83.7259 11.3276 85.2543 11.3042 87.126 11.3042C88.9976 11.3042 90.5183 11.3276 91.688 11.3744C92.8578 11.4056 93.8872 11.4992 94.7762 11.6552C95.6652 11.7955 96.3202 11.9671 96.7414 12.1699C97.1781 12.357 97.4978 12.6612 97.7006 13.0823C97.9189 13.4878 98.0125 13.9167 97.9813 14.369ZM83.2424 10.579L84.9268 6.2275H76.5747L77.6509 1.08057H92.8578L92.6004 2.3439H93.8638L94.1211 1.08057H100.906L98.8937 10.579H92.1091L92.3665 9.38584H90.565L90.1439 10.579H83.2424ZM90.7522 16.5448C90.8302 16.4824 90.8848 16.3654 90.916 16.1938C90.9472 16.0223 90.9394 15.9053 90.8926 15.8429C90.8614 15.7805 90.6898 15.7181 90.3779 15.6557C90.0659 15.5934 89.598 15.5544 88.9742 15.5388C88.3503 15.5232 87.4301 15.5154 86.2135 15.5154C84.997 15.5154 84.069 15.5232 83.4295 15.5388C82.8057 15.5544 82.3222 15.5934 81.979 15.6557C81.6515 15.7181 81.4487 15.7805 81.3708 15.8429C81.3084 15.9053 81.2616 16.0223 81.2304 16.1938C81.1992 16.3654 81.1992 16.4824 81.2304 16.5448C81.2772 16.6071 81.4565 16.6695 81.7685 16.7319C82.0804 16.7943 82.5483 16.8333 83.1722 16.8489C83.796 16.8645 84.7163 16.8723 85.9328 16.8723C87.1494 16.8723 88.0696 16.8645 88.6934 16.8489C89.3329 16.8333 89.8164 16.7943 90.1439 16.7319C90.4871 16.6695 90.6898 16.6071 90.7522 16.5448ZM91.8986 5.61922L91.6412 6.34447H93.0215L93.2087 5.38527H91.9454L91.8986 5.61922Z" fill="#F7634E"/>
<path id="Vector_2" d="M67.8853 1.08057L66.7857 6.34447H64.1187L63.9081 20.8729H57.451L57.8254 12.474L54.6436 20.8729H48.21L54.1523 6.34447H51.4853L52.5849 1.08057H67.8853ZM75.8396 1.08057L71.6519 20.8729H64.8673L69.055 1.08057H75.8396Z" fill="#F7634E"/>
<path id="Vector_3" d="M24.6098 12.1464L25.1011 9.80684C25.8029 6.46913 26.8557 4.15301 28.2594 2.85848C29.6631 1.56395 31.6985 0.916687 34.3656 0.916687C37.0326 0.916687 38.7872 1.56395 39.6295 2.85848C40.4873 4.15301 40.5575 6.46913 39.84 9.80684L39.3487 12.1464C38.6469 15.4841 37.5941 17.8002 36.1904 19.0947C34.7867 20.3892 32.7513 21.0365 30.0843 21.0365C27.4172 21.0365 25.6548 20.3892 24.7969 19.0947C23.9547 17.8002 23.8923 15.4841 24.6098 12.1464ZM33.032 12.1464L33.5233 9.80684C34.038 7.43613 34.2408 6.06362 34.1316 5.68929C34.038 5.47094 33.8041 5.36176 33.4298 5.36176C33.0866 5.36176 32.8293 5.44755 32.6577 5.61911C32.5017 5.77508 32.3302 6.1416 32.143 6.71868C31.9715 7.29576 31.7297 8.32515 31.4178 9.80684L30.9265 12.1464C30.6925 13.2693 30.521 14.1037 30.4118 14.6496C30.3182 15.1955 30.2792 15.6322 30.2948 15.9598C30.326 16.2717 30.3884 16.4589 30.482 16.5212C30.5911 16.568 30.7783 16.5914 31.0435 16.5914C31.3866 16.5914 31.6361 16.5134 31.7921 16.3575C31.9481 16.1859 32.1118 15.8194 32.2834 15.2579C32.4706 14.6808 32.7201 13.6436 33.032 12.1464ZM48.1453 8.49671H49.8765L48.7536 13.7606H47.0223L45.525 20.8727H38.7405L42.9282 1.08045H49.7128L48.1453 8.49671Z" fill="#F7634E"/>
<path id="Vector_4" d="M25.7814 1.08057L23.5823 11.5148H1.9418L4.14094 1.08057H25.7814ZM9.28787 5.50225L8.96034 7.06972H18.4354L18.7629 5.50225H9.28787ZM24.0502 12.4506L23.0208 17.3636H14.9027L14.1541 20.8729H7.36947L8.11811 17.3636H0L1.02939 12.4506H24.0502Z" fill="#F7634E"/>
</g>
</svg>
