<svg width="28" height="28" viewBox="0 0 28 28" fill="none" xmlns="http://www.w3.org/2000/svg">
<g id="Layer_1" clip-path="url(#clip0_1276_16941)">
<g id="Group 514037">
<path id="Vector" d="M27.9968 8.04673C27.9305 6.49574 27.4358 4.99343 26.5676 3.70648C25.6994 2.41954 24.4917 1.39829 23.0783 0.756025C21.665 0.113764 20.1014 -0.124388 18.561 0.0679904C17.0205 0.260369 15.5635 0.875757 14.3515 1.84588C14.2526 1.92402 14.1303 1.96653 14.0042 1.96653C13.8782 1.96653 13.7558 1.92402 13.6569 1.84588C12.0759 0.578703 10.0901 -0.0744443 8.06555 0.00675421C6.04096 0.0879527 4.11391 0.898027 2.6394 2.28775C1.16488 3.67747 0.242219 5.55322 0.0413896 7.56945C-0.159439 9.58569 0.37509 11.6066 1.54651 13.2599C1.61197 13.3538 1.64706 13.4656 1.64706 13.5801C1.64706 13.6946 1.61197 13.8063 1.54651 13.9003C0.37808 15.5537 -0.154023 17.5735 0.0480794 19.588C0.250182 21.6025 1.1729 23.4763 2.64649 24.8647C4.12009 26.2531 6.04545 27.0627 8.06843 27.1446C10.0914 27.2266 12.0759 26.5752 13.6569 25.3105C13.7558 25.2324 13.8782 25.1899 14.0042 25.1899C14.1303 25.1899 14.2526 25.2324 14.3515 25.3105C15.9326 26.5777 17.9183 27.2309 19.9429 27.1497C21.9675 27.0685 23.8945 26.2584 25.3691 24.8687C26.8436 23.4789 27.7662 21.6032 27.9671 19.587C28.1679 17.5707 27.6334 15.5498 26.462 13.8966C26.3965 13.8026 26.3614 13.6908 26.3614 13.5763C26.3614 13.4618 26.3965 13.3501 26.462 13.2561C27.5388 11.7387 28.0789 9.90558 27.9968 8.04673Z" fill="#F97C69"/>
<path id="Vector_2" d="M21.7496 8.4164C21.9793 8.14679 22.1503 7.83222 22.2515 7.49279C22.3528 7.15336 22.3822 6.79654 22.3377 6.44512C22.2933 6.0937 22.176 5.75542 21.9935 5.45188C21.8109 5.14835 21.567 4.88623 21.2774 4.68229C20.9878 4.47835 20.6588 4.33706 20.3115 4.26746C19.9642 4.19785 19.6062 4.20146 19.2603 4.27806C18.9145 4.35465 18.5884 4.50254 18.303 4.71228C18.0176 4.92202 17.779 5.189 17.6026 5.49616C17.5352 5.61469 17.4307 5.70778 17.3052 5.76109C17.1797 5.81439 17.0401 5.82496 16.908 5.79117C15.9592 5.55858 14.9851 5.44567 14.0083 5.45508C13.0126 5.44748 12.02 5.56669 11.0544 5.80984C10.921 5.84456 10.7797 5.83364 10.6532 5.77883C10.5267 5.72402 10.4221 5.62846 10.3561 5.50736C10.1799 5.19783 9.9408 4.92869 9.65414 4.71733C9.36748 4.50596 9.03968 4.35707 8.6919 4.28027C8.34412 4.20347 7.9841 4.20047 7.63509 4.27146C7.28608 4.34244 6.95584 4.48585 6.6657 4.6924C6.37555 4.89895 6.13196 5.16406 5.95064 5.47061C5.76932 5.77716 5.65432 6.11833 5.61305 6.47209C5.57179 6.82585 5.60518 7.18433 5.71107 7.52438C5.81696 7.86443 5.993 8.17849 6.22781 8.44628C6.31936 8.54606 6.37582 8.673 6.38863 8.8078C6.40143 8.94261 6.36988 9.07791 6.29877 9.19314C5.46601 10.5375 5.0459 12.1769 5.0459 13.9955C5.0459 18.9192 8.76156 22.9373 13.9504 22.9411C18.7509 22.9411 22.9744 18.9192 22.9744 13.9955C22.9744 12.1619 22.5394 10.5076 21.6917 9.1558C21.6212 9.0425 21.5888 8.90962 21.5992 8.7766C21.6096 8.64357 21.6623 8.51736 21.7496 8.4164Z" fill="white"/>
<path id="Vector_3" d="M14.0678 16.5348H13.8811C13.5824 16.5361 13.2903 16.4478 13.0423 16.2814C12.7944 16.115 12.602 15.8781 12.49 15.6013C12.4203 15.4307 12.3938 15.2457 12.4127 15.0625C12.4315 14.8792 12.4953 14.7035 12.5984 14.5508C12.7014 14.3981 12.8405 14.2732 13.0033 14.1871C13.1661 14.1009 13.3477 14.0563 13.5319 14.0571H14.4169C14.6011 14.0563 14.7827 14.1009 14.9455 14.1871C15.1083 14.2732 15.2474 14.3981 15.3505 14.5508C15.4535 14.7035 15.5173 14.8792 15.5362 15.0625C15.5551 15.2457 15.5285 15.4307 15.4588 15.6013C15.3468 15.8781 15.1544 16.115 14.9065 16.2814C14.6585 16.4478 14.3664 16.5361 14.0678 16.5348Z" fill="#F97C69"/>
<path id="Vector_4" d="M12.8337 19.8565C12.5542 19.8588 12.2833 19.7608 12.07 19.5802C11.9064 19.4398 11.783 19.2584 11.7125 19.0547C11.642 18.851 11.6268 18.6322 11.6686 18.4207C11.6782 18.3712 11.7071 18.3275 11.749 18.2993C11.7908 18.2711 11.8422 18.2607 11.8917 18.2704C11.9412 18.28 11.9849 18.309 12.013 18.3508C12.0412 18.3926 12.0516 18.444 12.042 18.4935C12.0146 18.6389 12.0267 18.7891 12.0769 18.9283C12.1271 19.0675 12.2137 19.1907 12.3277 19.2852C12.4515 19.384 12.6005 19.4464 12.7578 19.4652C12.9152 19.484 13.0746 19.4585 13.2183 19.3916C13.3931 19.3014 13.5349 19.1583 13.6235 18.9827C13.7278 18.7809 13.7853 18.5581 13.7915 18.331C13.7766 15.4537 13.7766 15.4537 13.9782 15.4295C14.0266 15.4254 14.0749 15.4388 14.1142 15.4673C14.1536 15.4957 14.1815 15.5372 14.193 15.5844C14.2021 15.6238 14.1981 15.6651 14.1818 15.7021C14.1631 15.9878 14.1631 17.4329 14.1668 18.331C14.1622 18.6198 14.0906 18.9036 13.9577 19.1601C13.8289 19.411 13.6236 19.6144 13.3714 19.7408C13.2026 19.8176 13.0192 19.8571 12.8337 19.8565Z" fill="#F97C69"/>
<path id="Vector_5" d="M12.8338 19.9536C12.5311 19.9552 12.2377 19.8486 12.0066 19.653C11.8312 19.5013 11.6994 19.3056 11.6246 19.0861C11.5497 18.8666 11.5347 18.6311 11.5809 18.4039C11.5953 18.3284 11.6391 18.2616 11.7026 18.2184C11.7662 18.1751 11.8443 18.1589 11.9198 18.1733C11.9953 18.1876 12.0621 18.2314 12.1053 18.295C12.1486 18.3585 12.1648 18.4367 12.1504 18.5122C12.1249 18.6396 12.1335 18.7715 12.1755 18.8945C12.2175 19.0175 12.2913 19.1272 12.3894 19.2124C12.4987 19.2997 12.6304 19.3546 12.7693 19.3708C12.9083 19.387 13.0491 19.3638 13.1755 19.3039C13.3329 19.2211 13.4599 19.0903 13.5377 18.9304C13.6332 18.7433 13.6861 18.5373 13.6927 18.3273C13.6778 15.3641 13.6778 15.3641 13.9746 15.3287C14.0466 15.3222 14.1184 15.3419 14.1771 15.384C14.2357 15.4262 14.2772 15.4881 14.2939 15.5583C14.3089 15.6108 14.3089 15.6664 14.2939 15.7189C14.2753 16.0344 14.2753 17.4759 14.279 18.3329C14.2739 18.6387 14.1979 18.9391 14.0568 19.2105C13.918 19.4786 13.6977 19.6956 13.4276 19.8304C13.2409 19.9141 13.0383 19.9562 12.8338 19.9536ZM11.8573 18.3609C11.835 18.361 11.8135 18.3689 11.7964 18.3832C11.7793 18.3976 11.7678 18.4174 11.7639 18.4394C11.7261 18.6342 11.7408 18.8356 11.8064 19.0229C11.872 19.2103 11.9862 19.3768 12.1373 19.5055C12.3332 19.6721 12.5823 19.7629 12.8394 19.7613C13.0108 19.7611 13.1802 19.7242 13.3361 19.653C13.571 19.5361 13.7617 19.3461 13.8794 19.1115C14.0042 18.8699 14.0719 18.6029 14.0773 18.3311C14.0773 17.4311 14.0773 15.9878 14.0923 15.6965V15.6666C14.0988 15.6472 14.0988 15.6262 14.0923 15.6069C14.0859 15.5827 14.0716 15.5614 14.0516 15.5465C14.0316 15.5316 14.0071 15.5239 13.9821 15.5247H13.9373C13.8589 15.5901 13.8626 16.3332 13.8719 18.3255C13.8637 18.57 13.7998 18.8095 13.6852 19.0256C13.5866 19.2179 13.4298 19.3741 13.2371 19.4719C13.0771 19.547 12.8992 19.5758 12.7236 19.555C12.5481 19.5342 12.3819 19.4647 12.2438 19.3543C12.1235 19.2457 12.0336 19.1077 11.9829 18.9538C11.9321 18.7999 11.9223 18.6355 11.9544 18.4767C11.9593 18.4514 11.954 18.4253 11.9397 18.4039C11.9253 18.3826 11.9031 18.3678 11.8778 18.3628L11.8573 18.3609Z" fill="#F97C69"/>
<path id="Vector_6" d="M15.1153 19.8565C14.9298 19.8571 14.7464 19.8176 14.5776 19.7408C14.3206 19.6163 14.1128 19.4092 13.9876 19.1526C13.8602 18.8969 13.7901 18.6166 13.7822 18.331C13.7822 17.4329 13.7822 15.9878 13.7654 15.7021C13.7527 15.6639 13.7527 15.6226 13.7654 15.5844C13.7768 15.5372 13.8047 15.4957 13.8441 15.4673C13.8835 15.4388 13.9317 15.4254 13.9801 15.4295C14.1911 15.4537 14.1911 15.4537 14.1668 18.3329C14.1755 18.5554 14.2309 18.7736 14.3292 18.9734C14.4166 19.154 14.5609 19.301 14.74 19.3916C14.8837 19.4585 15.0431 19.484 15.2005 19.4652C15.3578 19.4464 15.5068 19.384 15.6307 19.2852C15.7429 19.1886 15.8272 19.0637 15.8748 18.9235C15.9224 18.7833 15.9316 18.6329 15.9014 18.4879C15.8966 18.4634 15.8967 18.4381 15.9017 18.4137C15.9066 18.3892 15.9164 18.3659 15.9303 18.3452C15.9443 18.3245 15.9622 18.3067 15.983 18.2929C16.0039 18.2791 16.0272 18.2695 16.0517 18.2648C16.0762 18.26 16.1015 18.2601 16.1259 18.265C16.1504 18.27 16.1737 18.2797 16.1944 18.2937C16.2151 18.3077 16.2329 18.3256 16.2467 18.3464C16.2605 18.3672 16.2701 18.3906 16.2748 18.4151C16.3175 18.6273 16.3029 18.847 16.2327 19.0517C16.1625 19.2564 16.0391 19.4388 15.8753 19.5802C15.663 19.7599 15.3935 19.8579 15.1153 19.8565Z" fill="#F97C69"/>
<path id="Vector_7" d="M15.1156 19.9536C14.9159 19.9534 14.7186 19.9108 14.5368 19.8285C14.2606 19.6949 14.0372 19.4728 13.9019 19.1974C13.7676 18.9278 13.6936 18.6322 13.6853 18.3311C13.6853 17.4815 13.6853 16.0382 13.6704 15.717C13.6554 15.6646 13.6554 15.6089 13.6704 15.5565C13.6871 15.4862 13.7286 15.4243 13.7873 15.3822C13.8459 15.34 13.9177 15.3203 13.9897 15.3268C14.2866 15.3623 14.2866 15.3623 14.2716 18.3273C14.2806 18.5341 14.3321 18.7369 14.4229 18.923C14.5027 19.0852 14.634 19.2165 14.7963 19.2964C14.9227 19.3563 15.0635 19.3795 15.2024 19.3633C15.3414 19.3471 15.4731 19.2922 15.5824 19.2049C15.6805 19.1197 15.7543 19.01 15.7963 18.887C15.8383 18.764 15.8469 18.6321 15.8214 18.5047C15.807 18.4292 15.8232 18.3511 15.8665 18.2875C15.9097 18.224 15.9764 18.1802 16.052 18.1658C16.1275 18.1515 16.2056 18.1677 16.2692 18.2109C16.3327 18.2542 16.3765 18.3209 16.3908 18.3964C16.4362 18.6243 16.42 18.8602 16.3438 19.0798C16.2677 19.2994 16.1344 19.4946 15.9577 19.6455C15.7238 19.8472 15.4244 19.9568 15.1156 19.9536ZM13.9523 15.5247C13.9288 15.5253 13.9062 15.5337 13.8879 15.5486C13.8697 15.5635 13.8569 15.584 13.8515 15.6069C13.845 15.6262 13.845 15.6472 13.8515 15.6666V15.6965C13.8702 15.9859 13.872 17.4311 13.8664 18.3311C13.8712 18.6005 13.9349 18.8656 14.0532 19.1078C14.1685 19.3456 14.3605 19.5377 14.5984 19.653C14.7543 19.7242 14.9236 19.7611 15.095 19.7613C15.3521 19.7629 15.6012 19.6721 15.7971 19.5055C15.9482 19.3768 16.0624 19.2103 16.128 19.0229C16.1936 18.8356 16.2083 18.6342 16.1705 18.4394C16.1683 18.4269 16.1636 18.415 16.1567 18.4044C16.1498 18.3938 16.1409 18.3846 16.1304 18.3775C16.1199 18.3704 16.1081 18.3654 16.0957 18.3629C16.0833 18.3604 16.0705 18.3603 16.0581 18.3628C16.0457 18.3653 16.0339 18.3702 16.0234 18.3773C16.0129 18.3844 16.004 18.3936 15.9971 18.4042C15.9901 18.4148 15.9854 18.4266 15.9831 18.4391C15.9808 18.4516 15.9811 18.4643 15.9838 18.4767C16.0159 18.6366 16.0055 18.8021 15.9538 18.9567C15.902 19.1113 15.8106 19.2497 15.6888 19.358C15.5511 19.4691 15.3849 19.5392 15.2093 19.5604C15.0336 19.5815 14.8556 19.5528 14.6955 19.4775C14.4964 19.3804 14.3364 19.2184 14.2417 19.0182C14.1355 18.8048 14.0763 18.5711 14.0681 18.3329C14.0681 16.3407 14.0812 15.5975 14.0027 15.5322H13.9561L13.9523 15.5247Z" fill="#F97C69"/>
<path id="Vector_8" d="M11.043 11.5252H9.07126C9.03914 11.5252 9.00733 11.5316 8.97766 11.5439C8.94798 11.5561 8.92101 11.5742 8.8983 11.5969C8.87559 11.6196 8.85757 11.6466 8.84528 11.6762C8.83299 11.7059 8.82666 11.7377 8.82666 11.7698C8.82666 11.802 8.83299 11.8338 8.84528 11.8634C8.85757 11.8931 8.87559 11.9201 8.8983 11.9428C8.92101 11.9655 8.94798 11.9835 8.97766 11.9958C9.00733 12.0081 9.03914 12.0144 9.07126 12.0144H9.8648V13.2748C9.8648 13.4644 9.94015 13.6463 10.0743 13.7804C10.2084 13.9146 10.3903 13.9899 10.5799 13.9899C10.7696 13.9899 10.9515 13.9146 11.0856 13.7804C11.2197 13.6463 11.2951 13.4644 11.2951 13.2748V11.7661C11.2931 11.7009 11.2656 11.6391 11.2184 11.594C11.1712 11.5489 11.1082 11.5242 11.043 11.5252Z" fill="#F97C69"/>
<path id="Vector_9" d="M10.5799 14.059C10.3683 14.0625 10.1639 13.9819 10.0116 13.8348C9.85937 13.6878 9.77165 13.4864 9.76772 13.2748V12.1097H9.07127C9.02664 12.1097 8.98245 12.1009 8.94122 12.0838C8.89999 12.0667 8.86253 12.0417 8.83098 12.0101C8.79942 11.9786 8.77439 11.9411 8.75731 11.8999C8.74023 11.8586 8.73145 11.8145 8.73145 11.7698C8.73145 11.7252 8.74023 11.681 8.75731 11.6398C8.77439 11.5986 8.79942 11.5611 8.83098 11.5295C8.86253 11.498 8.89999 11.473 8.94122 11.4559C8.98245 11.4388 9.02664 11.43 9.07127 11.43H11.043C11.134 11.4285 11.2219 11.463 11.2876 11.5259C11.3533 11.5888 11.3916 11.6751 11.394 11.7661V13.271C11.3926 13.3763 11.3703 13.4802 11.3286 13.5769C11.2868 13.6735 11.2264 13.761 11.1507 13.8342C11.0751 13.9074 10.9857 13.965 10.8878 14.0035C10.7898 14.0421 10.6852 14.061 10.5799 14.059ZM9.07127 11.6223C9.03215 11.6223 8.99463 11.6379 8.96697 11.6655C8.9393 11.6932 8.92376 11.7307 8.92376 11.7698C8.92376 11.809 8.9393 11.8465 8.96697 11.8741C8.99463 11.9018 9.03215 11.9173 9.07127 11.9173H9.96004V13.2748C9.96004 13.4392 10.0253 13.5968 10.1416 13.7131C10.2579 13.8294 10.4155 13.8947 10.5799 13.8947C10.7443 13.8947 10.902 13.8294 11.0183 13.7131C11.1345 13.5968 11.1998 13.4392 11.1998 13.2748V11.7661C11.1984 11.7258 11.1811 11.6877 11.1517 11.6601C11.1224 11.6325 11.0833 11.6176 11.043 11.6186L9.07127 11.6223Z" fill="#F97C69"/>
<path id="Vector_10" d="M18.5509 11.5252H16.581C16.5489 11.5252 16.5171 11.5316 16.4874 11.5439C16.4577 11.5561 16.4308 11.5742 16.4081 11.5969C16.3854 11.6196 16.3673 11.6466 16.355 11.6762C16.3428 11.7059 16.3364 11.7377 16.3364 11.7698C16.3364 11.802 16.3428 11.8338 16.355 11.8634C16.3673 11.8931 16.3854 11.9201 16.4081 11.9428C16.4308 11.9655 16.4577 11.9835 16.4874 11.9958C16.5171 12.0081 16.5489 12.0144 16.581 12.0144H17.369V13.2748C17.3783 13.4584 17.4579 13.6313 17.5911 13.758C17.7244 13.8846 17.9012 13.9552 18.085 13.9552C18.2689 13.9552 18.4457 13.8846 18.5789 13.758C18.7122 13.6313 18.7917 13.4584 18.8011 13.2748V11.7661C18.7987 11.7014 18.7712 11.6401 18.7246 11.5952C18.6779 11.5503 18.6157 11.5252 18.5509 11.5252Z" fill="#F97C69"/>
<path id="Vector_11" d="M18.0897 14.059C17.8781 14.0625 17.6737 13.9819 17.5214 13.8348C17.3691 13.6878 17.2814 13.4864 17.2775 13.2748V12.1097H16.581C16.5364 12.1097 16.4922 12.1009 16.451 12.0838C16.4098 12.0667 16.3723 12.0417 16.3407 12.0101C16.3092 11.9786 16.2842 11.9411 16.2671 11.8999C16.25 11.8586 16.2412 11.8145 16.2412 11.7698C16.2412 11.7252 16.25 11.681 16.2671 11.6398C16.2842 11.5986 16.3092 11.5611 16.3407 11.5295C16.3723 11.498 16.4098 11.473 16.451 11.4559C16.4922 11.4388 16.5364 11.43 16.581 11.43H18.5509C18.6419 11.4285 18.7298 11.463 18.7955 11.5259C18.8612 11.5888 18.8995 11.6751 18.9019 11.7661V13.271C18.9005 13.3761 18.8783 13.4799 18.8366 13.5765C18.795 13.673 18.7347 13.7603 18.6593 13.8335C18.5838 13.9067 18.4947 13.9643 18.397 14.003C18.2992 14.0417 18.1948 14.0607 18.0897 14.059ZM16.581 11.6223C16.5419 11.6223 16.5044 11.6379 16.4767 11.6655C16.4491 11.6932 16.4335 11.7307 16.4335 11.7698C16.4335 11.809 16.4491 11.8465 16.4767 11.8741C16.5044 11.9018 16.5419 11.9173 16.581 11.9173H17.4698V13.2748C17.4785 13.433 17.5475 13.582 17.6626 13.691C17.7778 13.7999 17.9303 13.8607 18.0888 13.8607C18.2473 13.8607 18.3998 13.7999 18.5149 13.691C18.63 13.582 18.699 13.433 18.7077 13.2748V11.7661C18.7063 11.7258 18.689 11.6877 18.6596 11.6601C18.6303 11.6325 18.5912 11.6176 18.5509 11.6186L16.581 11.6223Z" fill="#F97C69"/>
</g>
</g>
<defs>
<clipPath id="clip0_1276_16941">
<rect width="28" height="28" fill="white"/>
</clipPath>
</defs>
</svg>
